PathFileType	4	(X/Y/Z)	SUBJ26_0_static_RCNL2025.trc
DataRate	CameraRate	NumFrames	NumMarkers	Units	OrigDataRate	OrigDataStartFrame	OrigNumFrames
100	100	11	25	mm	100	73	101
Frame#	Time	R_Shoulder			L_Shoulder			C7			J_Notch			R_Elbow			L_Elbow			R_Wrist			L_Wrist			R_Asis			L_Asis			Sacral			Thoracic			Sternum			R_Thigh_Lateral			R_Knee_Lateral			R_Shank_Lateral			R_Ankle_Lateral			R_Heel			R_Toe			L_Thigh_Lateral			L_Knee_Lateral			L_Shank_Lateral			L_Ankle_Lateral			L_Heel			L_Toe		
		X1	Y1	Z1	X2	Y2	Z2	X3	Y3	Z3	X4	Y4	Z4	X5	Y5	Z5	X6	Y6	Z6	X7	Y7	Z7	X8	Y8	Z8	X9	Y9	Z9	X10	Y10	Z10	X11	Y11	Z11	X12	Y12	Z12	X13	Y13	Z13	X14	Y14	Z14	X15	Y15	Z15	X16	Y16	Z16	X17	Y17	Z17	X18	Y18	Z18	X19	Y19	Z19	X20	Y20	Z20	X21	Y21	Z21	X22	Y22	Z22	X23	Y23	Z23	X24	Y24	Z24	X25	Y25	Z25
73	0.72000000	-222.594711	1338.782104	-63.032417	-243.748001	1354.482300	-383.775238	-309.210724	1386.689941	-208.739487	-155.998947	1304.188354	-233.011322	-291.286896	1016.288208	26.552769	-303.326996	1033.235840	-492.899414	-210.399643	779.709930	66.456972	-213.669334	807.674896	-539.164551	-142.490189	936.601318	-101.969673	-169.403778	932.773499	-401.548187	-359.216431	924.271545	-223.984863	-348.989899	1037.503906	-225.764343	-83.376503	1050.704468	-234.492035	-252.456329	593.058105	-49.909832	-272.448151	446.710785	-121.338348	-297.935333	296.986481	-78.807808	-302.571747	55.333477	-150.708420	-353.049591	40.713795	-211.282043	-178.396210	44.927513	-172.200684	-247.042297	614.078186	-435.757568	-279.846008	450.268585	-355.650085	-291.607910	268.024017	-420.274719	-296.099792	61.408417	-329.046661	-357.568817	38.861263	-280.249908	-175.281982	43.552227	-289.886261
74	0.73000000	-222.772964	1338.811035	-63.147232	-243.796204	1354.431763	-383.883331	-309.373077	1386.693848	-208.997299	-156.027863	1304.279175	-233.199326	-291.536133	1016.335266	26.490204	-303.434021	1033.167969	-492.885620	-210.606087	779.779816	66.477560	-213.742981	807.607819	-539.142395	-142.647736	936.625854	-102.048698	-169.488434	932.704651	-401.662445	-359.279144	924.209167	-224.075699	-349.019531	1037.464966	-225.900604	-83.479027	1050.687256	-234.571060	-252.548309	593.019531	-49.934155	-272.304077	446.689453	-121.419075	-297.756409	296.939728	-78.803421	-302.469452	55.360126	-150.782333	-353.012634	40.685036	-211.312866	-178.389908	44.919815	-172.224197	-247.166718	614.099548	-435.797150	-280.015167	450.262817	-355.719299	-291.721863	267.990997	-420.247681	-296.273895	61.205437	-329.013916	-357.462372	38.744061	-280.172729	-175.271149	43.563850	-289.907654
75	0.74000000	-222.950180	1338.845459	-63.284775	-243.768417	1354.392822	-384.075134	-309.428741	1386.712524	-209.122238	-156.039093	1304.192139	-233.252670	-291.673767	1016.377869	26.413076	-303.439636	1033.104980	-493.008148	-210.766647	779.893341	66.486883	-214.029953	807.319611	-539.054260	-142.729324	936.582825	-102.067513	-169.503006	932.707397	-401.721222	-359.392822	924.182068	-224.156433	-349.216522	1037.494751	-225.982361	-83.449783	1050.685181	-234.595749	-252.475632	592.834534	-49.969212	-272.217499	446.648865	-121.477417	-297.685974	296.923553	-78.836258	-302.463104	55.295895	-150.814438	-352.997681	40.673477	-211.287354	-178.395615	44.923252	-172.219650	-247.160446	614.097717	-435.772003	-280.018036	450.266205	-355.739380	-291.789612	267.959595	-420.291565	-296.234283	61.174767	-329.008942	-357.568970	38.750805	-280.258209	-175.262711	43.561020	-289.890198
76	0.75000000	-223.074783	1338.886353	-63.489796	-243.842697	1354.302979	-384.188385	-309.438843	1386.710693	-209.342499	-156.054947	1304.266357	-233.436615	-291.885773	1016.390259	26.290506	-303.462189	1032.992065	-493.080048	-210.962547	779.945770	66.509138	-213.999718	807.335175	-539.118317	-142.872803	936.682800	-102.056236	-169.592178	932.737061	-401.768280	-359.396912	924.160095	-224.164001	-349.299286	1037.475708	-226.036438	-83.539154	1050.669067	-234.713394	-252.660172	592.876343	-49.901241	-272.195831	446.622803	-121.497978	-297.636749	296.913025	-78.811668	-302.510376	55.297024	-150.778839	-353.003510	40.652031	-211.313248	-178.382187	44.873173	-172.299576	-247.181213	614.115662	-435.793060	-280.170349	450.251068	-355.737732	-291.804626	267.971588	-420.544312	-296.255737	61.135105	-329.019928	-357.457397	38.627106	-280.207947	-175.255020	43.555714	-289.868134
77	0.76000000	-223.253510	1338.908447	-63.574017	-243.927917	1354.281982	-384.365784	-309.472992	1386.667847	-209.447601	-156.098267	1304.243896	-233.584305	-291.986786	1016.430725	26.205872	-303.508881	1032.904785	-493.125031	-211.155067	780.009888	66.472015	-213.982307	807.266388	-539.215637	-142.957901	936.689209	-102.071724	-169.632858	932.695129	-401.817688	-359.458740	924.151550	-224.247589	-349.375092	1037.484253	-226.027420	-83.560303	1050.681396	-234.763580	-252.678940	592.872864	-49.903934	-272.131165	446.590149	-121.563057	-297.516083	296.901581	-78.859314	-302.483490	55.362709	-150.833771	-353.003937	40.651054	-211.316132	-178.390656	44.926052	-172.263077	-247.194473	614.096924	-435.789856	-280.266602	450.220490	-355.755859	-291.913666	267.890503	-420.354340	-296.076050	61.329094	-329.126709	-357.422638	38.604836	-280.228058	-175.285370	43.454266	-289.925537
78	0.77000000	-223.384094	1339.018677	-63.736851	-243.965378	1354.229858	-384.520020	-309.575470	1386.716064	-209.639420	-156.342163	1304.229126	-233.670731	-292.192810	1016.472473	26.093967	-303.513733	1032.829224	-493.230225	-211.407845	780.069031	66.445160	-214.129967	807.151001	-539.241943	-143.049805	936.678223	-102.121552	-169.626846	932.639893	-401.790222	-359.532013	924.172913	-224.299728	-349.444244	1037.488403	-226.061478	-83.759827	1050.621704	-234.651550	-252.854126	592.836670	-49.874660	-272.117004	446.586700	-121.559265	-297.463440	296.883240	-78.908577	-302.437439	55.308121	-150.874710	-353.003632	40.625736	-211.315720	-178.395737	44.920078	-172.238068	-247.263519	614.047119	-435.779419	-280.350098	450.256042	-355.815735	-292.085083	267.940521	-420.414368	-296.300568	61.147106	-329.036194	-357.546387	38.693520	-280.198425	-175.309937	43.456043	-289.894623
79	0.78000000	-223.514252	1339.042847	-63.880291	-244.034134	1354.145996	-384.706055	-309.686523	1386.738037	-209.769165	-156.410980	1304.219849	-233.863541	-292.255127	1016.551025	26.035597	-303.564453	1032.817871	-493.362427	-211.554886	780.141876	66.442623	-214.218727	807.103119	-539.304810	-143.130676	936.663757	-102.152260	-169.612411	932.660645	-401.842834	-359.581757	924.156067	-224.415436	-349.532074	1037.504639	-226.138199	-83.763428	1050.545532	-234.717957	-252.937851	592.863403	-49.875610	-272.092438	446.550629	-121.581146	-297.453674	296.878235	-78.916718	-302.431305	55.308342	-150.892960	-352.987152	40.652451	-211.339584	-178.409027	44.920944	-172.268448	-247.204559	614.045593	-435.737854	-280.447418	450.237274	-355.803833	-292.104431	267.931671	-420.448120	-296.132202	61.308460	-329.162262	-357.620850	38.730476	-280.265625	-175.253799	43.377823	-289.796509
80	0.79000000	-223.668457	1339.124023	-64.003128	-244.057724	1354.136719	-384.777679	-309.795532	1386.773682	-209.963669	-156.521942	1304.233765	-233.955231	-292.464172	1016.660339	25.926914	-303.597809	1032.763062	-493.451660	-211.801010	780.210907	66.428854	-214.233627	807.034271	-539.391144	-143.334503	936.669373	-102.138168	-169.745712	932.609375	-401.874878	-359.720184	924.156067	-224.441772	-349.656616	1037.497437	-226.186829	-83.914993	1050.538452	-234.747009	-252.977188	592.742065	-49.834412	-272.066803	446.580811	-121.618477	-297.451294	296.841217	-78.914055	-302.440338	55.287697	-150.901337	-352.969177	40.649139	-211.365875	-178.398514	44.967403	-172.334930	-247.290115	614.044983	-435.753479	-280.517975	450.252533	-355.841156	-292.031982	267.918243	-420.630829	-296.293030	61.085533	-329.044708	-357.520721	38.566841	-280.255707	-175.229782	43.419994	-289.768280
81	0.80000000	-223.790863	1339.200073	-64.208740	-244.155334	1354.077759	-384.953217	-309.845154	1386.768066	-210.071716	-156.424072	1304.280640	-234.417435	-292.617065	1016.754272	25.769073	-303.684387	1032.701904	-493.513428	-211.857117	780.268951	66.371412	-214.384010	806.966919	-539.498657	-143.527115	936.649414	-102.008720	-169.732178	932.653381	-401.859070	-359.814941	924.182739	-224.465530	-349.735718	1037.547852	-226.237915	-83.966805	1050.479858	-234.681885	-253.203217	592.821960	-49.913513	-272.127625	446.521393	-121.690872	-297.457520	296.819672	-78.928085	-302.423248	55.361740	-150.887756	-353.054474	40.651241	-211.398941	-178.348740	44.908726	-172.314102	-247.299042	614.015625	-435.721649	-280.540344	450.231506	-355.824219	-292.232117	267.868164	-420.410217	-296.325836	61.046551	-329.017975	-357.586945	38.641964	-280.256470	-175.237152	43.417870	-289.763885
82	0.81000000	-223.863129	1339.264282	-64.276085	-244.163177	1354.030640	-385.125610	-309.882507	1386.796265	-210.280319	-156.645554	1304.227417	-234.225906	-292.684082	1016.867493	25.662937	-303.700897	1032.643555	-493.617981	-212.069107	780.362579	66.336605	-214.590912	806.938141	-539.663696	-143.684464	936.707764	-102.129005	-169.806702	932.716248	-401.928894	-359.881805	924.198303	-224.520630	-349.813019	1037.540161	-226.284805	-83.949440	1050.513184	-234.713135	-253.309784	592.791077	-49.886597	-272.212433	446.508392	-121.654465	-297.412170	296.861145	-78.947952	-302.305756	55.279377	-150.946030	-352.995148	40.631180	-211.343597	-178.396255	44.964603	-172.333145	-247.297775	614.066467	-435.708862	-280.525421	450.218140	-355.834259	-292.248016	267.923462	-420.465454	-296.384979	61.073341	-328.975403	-357.693970	38.686836	-280.291504	-175.300690	43.443565	-289.820587
83	0.82000000	-223.894867	1339.303101	-64.355568	-244.158371	1353.994385	-385.231812	-309.814728	1386.737183	-210.542709	-156.713715	1304.279419	-234.370865	-292.762329	1016.918274	25.607462	-303.801575	1032.667236	-493.772888	-211.927696	780.442413	66.204588	-214.696198	806.907715	-539.844116	-143.862686	936.713745	-102.115524	-169.801331	932.716736	-401.895416	-359.888947	924.182129	-224.549423	-349.807983	1037.623535	-226.348495	-84.069519	1050.453369	-234.786606	-253.550156	592.890625	-49.873455	-272.226166	446.523956	-121.642723	-297.396942	296.895294	-78.976463	-302.432678	55.344563	-151.008347	-353.053864	40.676006	-211.394745	-178.403336	44.969055	-172.335785	-247.220047	614.068909	-435.760071	-280.519257	450.227722	-355.846527	-292.247925	267.913818	-420.466034	-296.302002	61.076817	-329.053162	-357.670959	38.702354	-280.269928	-175.308701	43.447014	-289.828552
